<svg width="500" height="200" viewBox="0 0 500 200" xmlns="http://www.w3.org/2000/svg" style="background:#F4F1DE; border-radius:8px;">
  <!-- Pociągnięcie 1 -->
  <path d="M10 40 Q60 10 110 40 T210 40" stroke="#D35400" stroke-width="12" stroke-linecap="round" fill="none"></path>
  <!-- Pociągnięcie 2 -->
  <path d="M220 90 Q240 60 270 90" stroke="#5C4033" stroke-width="10" stroke-linecap="round" fill="none"></path>
  <!-- Pociągnięcie 3 -->
  <path d="M50 110 Q90 80 130 110 T210 110" stroke="#D35400" stroke-width="15" stroke-linecap="round" fill="none" opacity="0.8"></path>
  <!-- Pociągnięcie 4 -->
  <path d="M300 40 Q320 15 340 40" stroke="#5C4033" stroke-width="8" stroke-linecap="round" fill="none" opacity="0.7"></path>
  <!-- Pociągnięcie 5 -->
  <path d="M310 110 Q335 90 360 110" stroke="#D35400" stroke-width="5" stroke-linecap="round" fill="none" opacity="0.6"></path>
  <!-- Pociągnięcie 6 - falista -->
  <path d="M50 160 Q90 130 130 160 T210 160" stroke="#A35C28" stroke-width="10" stroke-linecap="round" fill="none" opacity="0.7"></path>
  <!-- Pociągnięcie 7 - krótkie i grubsze -->
  <path d="M360 150 Q380 130 410 150" stroke="#B55A1E" stroke-width="12" stroke-linecap="round" fill="none"></path>
  <!-- Pociągnięcie 8 - cienkie, falujące -->
  <path d="M420 70 Q440 50 460 70" stroke="#A35C28" stroke-width="6" stroke-linecap="round" fill="none" opacity="0.8"></path>
  <!-- Pociągnięcie 9 - krótkie, falujące -->
  <path d="M440 120 Q460 100 480 120" stroke="#D35400" stroke-width="8" stroke-linecap="round" fill="none" opacity="0.7"></path>
  <!-- Pociągnięcie 10 - falująca linia -->
  <path d="M150 30 Q190 0 230 30 T310 30" stroke="#B55A1E" stroke-width="7" stroke-linecap="round" fill="none" opacity="0.5"></path>
</svg>
